<?xml version="1.0" standalone="no"?>
<!DOCTYPE svg PUBLIC "-//W3C//DTD SVG 20010904//EN"
 "http://www.w3.org/TR/2001/REC-SVG-20010904/DTD/svg10.dtd">
<svg version="1.0" xmlns="http://www.w3.org/2000/svg"
 width="1000" height="1000" viewBox="0 0 767.000000 640.000000"
 preserveAspectRatio="xMidYMid meet">

<g transform="translate(0.000000,640.000000) scale(0.100000,-0.100000)"
fill="#000000ff" stroke="none">
<path d="M4395 5068 c-2 -7 -13 -74 -24 -148 -34 -222 -58 -373 -96 -610 -19
-124 -42 -268 -50 -320 -36 -228 -51 -309 -57 -315 -3 -4 -26 6 -50 21 -23 15
-88 55 -143 89 -55 34 -201 124 -325 200 -124 76 -292 180 -375 230 -82 51
-251 154 -373 229 -123 76 -226 135 -229 133 -4 -4 3 -56 52 -367 21 -135 82
-477 124 -695 21 -110 37 -202 35 -204 -2 -2 -219 -6 -484 -9 -264 -3 -480 -8
-479 -11 0 -3 66 -60 146 -126 81 -66 210 -174 287 -241 78 -66 282 -240 454
-387 l314 -267 824 0 824 0 257 514 257 513 -300 596 c-164 327 -296 598 -293
601 3 4 198 10 432 14 l425 7 -214 200 c-118 110 -253 237 -301 282 l-88 83
-273 0 c-209 0 -274 -3 -277 -12z"/>
</g>
</svg>